<svg width="10" height="6" viewBox="0 0 10 6" fill="none" xmlns="http://www.w3.org/2000/svg">
<path fill-rule="evenodd" clip-rule="evenodd" d="M7.01062 0.314952C6.83934 0.18787 6.59629 0.20199 6.44097 0.357313C6.27011 0.528167 6.27011 0.805176 6.44097 0.976031L8.02744 2.5625H0.916992L0.857626 2.5665C0.644082 2.59547 0.479492 2.77852 0.479492 3C0.479492 3.24163 0.675368 3.4375 0.916992 3.4375H8.02744L6.44097 5.02398L6.39861 5.07305C6.27152 5.24432 6.28564 5.48738 6.44097 5.6427C6.61182 5.81355 6.88883 5.81355 7.05969 5.6427L9.39268 3.3097M9.39116 2.6888L9.39302 2.69065C9.5623 2.85993 9.56386 3.13343 9.39768 3.30463C9.39614 3.30622 9.39458 3.3078 9.39302 3.30936M9.39116 2.6888L7.05969 0.357313L7.01062 0.314952" fill="#0D6EFD"/>
</svg>
